# xmcd
#
# Track frame offsets: 
#        150
#        13075
#        29600
#        47537
#        62145
#        80795
#        97112
#        111060
#        124462
#        139205
#        156170
#        168987
#        180825
#        197385
#        213687
#
# Disc length: 3122 seconds
#
# Revision: 4
# Processed by: cddbd v1.5.2PL0 Copyright (c) Steve Scherf et al.
# Submitted via: ExactAudioCopy v1.0b3
#
DISCID=d40c300f
DTITLE=Various Artist - The Best Of Country Heat
DYEAR=2003
DGENRE=Country
TTITLE0=Alan Jackson - Don't Rock The Jukebox
TTITLE1=Blackhawk - Every Once In A While
TTITLE2=John Anderson - Seminole Wind
TTITLE3=Pam Tillis - Cleopatra, Queen Of Denial
TTITLE4=Charlie Major - I'm Gonna Drive You Out Of My Mind
TTITLE5=Prairie Oyster - Did You Fall In Love With Me
TTITLE6=Lari White - What A Woman Wants
TTITLE7=Brooks and Dunn - Hard Workin' Man
TTITLE8=Clint Black - Put Yourself In My Shoes
TTITLE9=Michelle Wright - He Would Be Sixteen
TTITLE10=Alabama - I'm In A Hurry (And Don't Know Why)
TTITLE11=Martina McBride - My Baby Loves Me
TTITLE12=Diamond Rio - Love A Little Stronger
TTITLE13=Lorrie Morgan - Watch Me
TTITLE14=The Tractors - Tryin' To Get To New Orleans
EXTD=
EXTT0=
EXTT1=
EXTT2=
EXTT3=
EXTT4=
EXTT5=
EXTT6=
EXTT7=
EXTT8=
EXTT9=
EXTT10=
EXTT11=
EXTT12=
EXTT13=
EXTT14=
PLAYORDER=
